<svg xmlns="http://www.w3.org/2000/svg" width="0" height="0" style="position:absolute" aria-hidden="true" focusable="false"><defs>
<symbol id="i-search" viewBox="0 0 24 24" fill="none" stroke="currentColor" stroke-width="2.1" stroke-linecap="round"><circle cx="11" cy="11" r="7"/><path d="M20 20l-3.6-3.6"/></symbol>
<symbol id="i-user" viewBox="0 0 24 24" fill="none" stroke="currentColor" stroke-width="1.9" stroke-linecap="round"><circle cx="12" cy="8" r="3.6"/><path d="M4.5 20c1.2-3.7 4-5.6 7.5-5.6s6.3 1.9 7.5 5.6"/></symbol>
<symbol id="i-heart" viewBox="0 0 24 24" fill="none" stroke="currentColor" stroke-width="1.9" stroke-linejoin="round"><path d="M12 20.3S3.6 15.4 3.6 9.6A4.6 4.6 0 0 1 12 7a4.6 4.6 0 0 1 8.4 2.6c0 5.8-8.4 10.7-8.4 10.7Z"/></symbol>
<symbol id="i-cart" viewBox="0 0 24 24" fill="none" stroke="currentColor" stroke-width="1.9" stroke-linecap="round" stroke-linejoin="round"><path d="M2.6 3.4h2.7l2.3 11.1h9.6l2.1-8H6.2"/><circle cx="9.4" cy="19.4" r="1.6"/><circle cx="17.2" cy="19.4" r="1.6"/></symbol>
<symbol id="i-plus" viewBox="0 0 24 24" fill="none" stroke="currentColor" stroke-width="2.4" stroke-linecap="round"><path d="M12 5v14M5 12h14"/></symbol>
<symbol id="i-check" viewBox="0 0 24 24" fill="none" stroke="currentColor" stroke-width="2.6" stroke-linecap="round" stroke-linejoin="round"><path d="M4.5 12.5 10 18 19.5 6.5"/></symbol>
<symbol id="i-arrow" viewBox="0 0 24 24" fill="none" stroke="currentColor" stroke-width="2.1" stroke-linecap="round" stroke-linejoin="round"><path d="M4 12h15M13 6l6 6-6 6"/></symbol>
<symbol id="i-x" viewBox="0 0 24 24" fill="none" stroke="currentColor" stroke-width="2.2" stroke-linecap="round"><path d="M6 6l12 12M18 6L6 18"/></symbol>
<symbol id="i-truck" viewBox="0 0 24 24" fill="none" stroke="currentColor" stroke-width="1.9" stroke-linecap="round" stroke-linejoin="round"><path d="M2.6 6.4h10.2v9.2H2.6zM12.8 9.6h4l3.4 3v3h-7.4z"/><circle cx="6.6" cy="17.6" r="1.7"/><circle cx="16.4" cy="17.6" r="1.7"/></symbol>
<symbol id="i-clock" viewBox="0 0 24 24" fill="none" stroke="currentColor" stroke-width="1.9" stroke-linecap="round"><circle cx="12" cy="12" r="8.6"/><path d="M12 7v5.3l3.4 2"/></symbol>
<symbol id="i-pin" viewBox="0 0 24 24" fill="none" stroke="currentColor" stroke-width="1.9" stroke-linejoin="round"><path d="M12 21.5s6.8-6.2 6.8-11.2a6.8 6.8 0 1 0-13.6 0c0 5 6.8 11.2 6.8 11.2Z"/><circle cx="12" cy="10.1" r="2.5"/></symbol>
<symbol id="i-wa" viewBox="0 0 24 24" fill="currentColor"><path d="M12 2.2A9.7 9.7 0 0 0 3.6 16.8L2.3 21.7l5-1.3A9.7 9.7 0 1 0 12 2.2Zm0 1.9a7.8 7.8 0 0 1 6.1 12.7 7.8 7.8 0 0 1-9.9 1.9l-.4-.2-2.6.7.7-2.6-.2-.4A7.8 7.8 0 0 1 12 4.1Zm-3.3 3.6c-.2 0-.5.1-.7.4-.3.3-.9.9-.9 2.1s.9 2.4 1.1 2.6c.1.2 1.8 2.8 4.4 3.8 2.2.9 2.6.7 3.1.6.5 0 1.5-.6 1.7-1.2.2-.6.2-1.1.1-1.2l-.6-.3-1.6-.8c-.2-.1-.4-.1-.6.1l-.8 1c-.1.2-.3.2-.5.1a6.4 6.4 0 0 1-1.9-1.2 7.2 7.2 0 0 1-1.3-1.7c-.1-.2 0-.4.1-.5l.4-.5.3-.5v-.5l-.8-1.9c-.2-.5-.4-.4-.5-.4Z"/></symbol>
<symbol id="i-home" viewBox="0 0 24 24" fill="none" stroke="currentColor" stroke-width="1.9" stroke-linejoin="round"><path d="M3.6 10.4 12 3.5l8.4 6.9v9.2a1 1 0 0 1-1 1h-4.6v-6.2H9.2v6.2H4.6a1 1 0 0 1-1-1z"/></symbol>
<symbol id="i-grid" viewBox="0 0 24 24" fill="none" stroke="currentColor" stroke-width="1.9"><rect x="3.4" y="3.4" width="7.2" height="7.2" rx="1.8"/><rect x="13.4" y="3.4" width="7.2" height="7.2" rx="1.8"/><rect x="3.4" y="13.4" width="7.2" height="7.2" rx="1.8"/><rect x="13.4" y="13.4" width="7.2" height="7.2" rx="1.8"/></symbol>
<symbol id="i-shield" viewBox="0 0 24 24" fill="none" stroke="currentColor" stroke-width="1.9" stroke-linejoin="round"><path d="M12 2.8 4.6 5.6v6c0 4.3 3 8.2 7.4 9.6 4.4-1.4 7.4-5.3 7.4-9.6v-6z"/><path d="m8.8 12 2.2 2.2 4.2-4.4"/></symbol>
<symbol id="i-money" viewBox="0 0 24 24" fill="none" stroke="currentColor" stroke-width="1.8" stroke-linejoin="round"><rect x="2.4" y="5.6" width="19.2" height="12.8" rx="2"/><circle cx="12" cy="12" r="2.9"/><path d="M6 9.4v5.2M18 9.4v5.2"/></symbol>
<symbol id="i-globe" viewBox="0 0 24 24" fill="none" stroke="currentColor" stroke-width="1.8"><circle cx="12" cy="12" r="8.6"/><path d="M3.4 12h17.2M12 3.4c2.2 2.4 3.3 5.4 3.3 8.6s-1.1 6.2-3.3 8.6c-2.2-2.4-3.3-5.4-3.3-8.6S9.8 5.8 12 3.4Z"/></symbol>
<symbol id="i-bag" viewBox="0 0 24 24" fill="none" stroke="#fff" stroke-width="2" stroke-linejoin="round"><path d="M4.6 8h14.8l-1.3 12H5.9z"/><path d="M8.6 8V6.3a3.4 3.4 0 0 1 6.8 0V8"/></symbol>

<symbol id="a-epicerie" viewBox="0 0 64 64"><path d="M14 22h36l-3 30H17z" fill="#C5233A" opacity=".18"/><path d="M14 22h36l-3 30H17z" fill="none" stroke="#C5233A" stroke-width="3" stroke-linejoin="round"/><path d="M24 22v-4a8 8 0 0 1 16 0v4" fill="none" stroke="#C5233A" stroke-width="3"/><path d="M22 34h20M22 42h14" stroke="#E8A317" stroke-width="3" stroke-linecap="round"/></symbol>
<symbol id="a-epices" viewBox="0 0 64 64"><path d="M20 26h24v26a4 4 0 0 1-4 4H24a4 4 0 0 1-4-4z" fill="#E8A317" opacity=".25"/><path d="M20 26h24v26a4 4 0 0 1-4 4H24a4 4 0 0 1-4-4z" fill="none" stroke="#C5233A" stroke-width="3" stroke-linejoin="round"/><rect x="24" y="14" width="16" height="12" rx="3" fill="none" stroke="#C5233A" stroke-width="3"/><circle cx="28" cy="19" r="1.8" fill="#C5233A"/><circle cx="36" cy="19" r="1.8" fill="#C5233A"/><path d="M26 38h12M26 46h8" stroke="#C5233A" stroke-width="2.6" stroke-linecap="round" opacity=".55"/></symbol>
<symbol id="a-fruits" viewBox="0 0 64 64"><path d="M32 20c8 0 14 7 14 16s-6 16-14 16-14-7-14-16 6-16 14-16Z" fill="#1E6B4F" opacity=".2"/><path d="M32 20c8 0 14 7 14 16s-6 16-14 16-14-7-14-16 6-16 14-16Z" fill="none" stroke="#1E6B4F" stroke-width="3"/><path d="M32 20V9" stroke="#1E6B4F" stroke-width="3" stroke-linecap="round"/><path d="M32 14c6-6 13-5 13-5s-1 8-9 8z" fill="#1E6B4F" opacity=".45"/><path d="M26 32c0 6 2 10 6 13" stroke="#E8A317" stroke-width="2.6" stroke-linecap="round"/></symbol>
<symbol id="a-poissons" viewBox="0 0 64 64"><path d="M8 32c8-11 18-16 28-16s16 7 20 16c-4 9-10 16-20 16S16 43 8 32Z" fill="#23304F" opacity=".18"/><path d="M8 32c8-11 18-16 28-16s16 7 20 16c-4 9-10 16-20 16S16 43 8 32Z" fill="none" stroke="#23304F" stroke-width="3" stroke-linejoin="round"/><path d="M8 32 2 22v20z" fill="#23304F" opacity=".4"/><circle cx="45" cy="28" r="2.6" fill="#23304F"/><path d="M26 24c4 5 4 11 0 16" stroke="#23304F" stroke-width="2.4" opacity=".5"/></symbol>
<symbol id="a-surgeles" viewBox="0 0 64 64"><path d="M32 8v48M11 20l42 24M53 20 11 44" stroke="#23304F" stroke-width="3.4" stroke-linecap="round"/><path d="M32 18l-6-6m6 6 6-6m-6 28-6 6m6-6 6 6M20 26l-8-1m8 1-3 8m27-8 8-1m-8 1 3 8m-3 8 3 8m-3-8 8 1M20 38l-3 8m3-8-8 1" stroke="#E8A317" stroke-width="2.6" stroke-linecap="round"/></symbol>
<symbol id="a-dejeuner" viewBox="0 0 64 64"><path d="M12 30h30v10a12 12 0 0 1-12 12h-6a12 12 0 0 1-12-12z" fill="#E8A317" opacity=".28"/><path d="M12 30h30v10a12 12 0 0 1-12 12h-6a12 12 0 0 1-12-12z" fill="none" stroke="#C5233A" stroke-width="3" stroke-linejoin="round"/><path d="M42 34h5a7 7 0 0 1 0 14h-5" fill="none" stroke="#C5233A" stroke-width="3"/><path d="M20 22c0-4 4-4 4-8m8 8c0-4 4-4 4-8" stroke="#C5233A" stroke-width="2.8" stroke-linecap="round" opacity=".6"/></symbol>
<symbol id="a-conserves" viewBox="0 0 64 64"><rect x="18" y="14" width="28" height="38" rx="4" fill="#C5233A" opacity=".18"/><rect x="18" y="14" width="28" height="38" rx="4" fill="none" stroke="#C5233A" stroke-width="3"/><ellipse cx="32" cy="17" rx="14" ry="4.6" fill="none" stroke="#C5233A" stroke-width="3"/><path d="M18 28h28M18 40h28" stroke="#E8A317" stroke-width="3"/></symbol>
<symbol id="a-farines" viewBox="0 0 64 64"><path d="M18 22c0-4 4-6 14-6s14 2 14 6l4 28a4 4 0 0 1-4 4H18a4 4 0 0 1-4-4z" fill="#E8A317" opacity=".25"/><path d="M18 22c0-4 4-6 14-6s14 2 14 6l4 28a4 4 0 0 1-4 4H18a4 4 0 0 1-4-4z" fill="none" stroke="#C5233A" stroke-width="3" stroke-linejoin="round"/><path d="M24 34h16v10H24z" fill="none" stroke="#C5233A" stroke-width="2.6"/></symbol>
<symbol id="a-viandes" viewBox="0 0 64 64"><path d="M22 12c12 0 22 9 22 20 0 8-4 12-4 18a8 8 0 0 1-16 0c0-6-8-9-8-18 0-11 0-20 6-20Z" fill="#C5233A" opacity=".2"/><path d="M22 12c12 0 22 9 22 20 0 8-4 12-4 18a8 8 0 0 1-16 0c0-6-8-9-8-18 0-11 0-20 6-20Z" fill="none" stroke="#C5233A" stroke-width="3" stroke-linejoin="round"/><circle cx="30" cy="32" r="6" fill="none" stroke="#C5233A" stroke-width="2.6"/></symbol>
<symbol id="a-garde" viewBox="0 0 64 64"><rect x="10" y="14" width="44" height="38" rx="4" fill="#1E6B4F" opacity=".16"/><rect x="10" y="14" width="44" height="38" rx="4" fill="none" stroke="#1E6B4F" stroke-width="3"/><path d="M10 27h44M10 40h44M32 14v38" stroke="#1E6B4F" stroke-width="2.6"/><path d="M20 21.5h4M40 21.5h4M20 34.5h4M40 34.5h4M20 46.5h4M40 46.5h4" stroke="#E8A317" stroke-width="3" stroke-linecap="round"/></symbol>

<symbol id="b-perruque" viewBox="0 0 64 64"><path d="M32 10c11 0 18 8 18 19v8c0 9-3 15-6 17V38c0-3-2-4-4-2-4 3-12 3-16 0-2-2-4-1-4 2v16c-3-2-6-8-6-17v-8c0-11 7-19 18-19Z" fill="#23304F" opacity=".22"/><path d="M32 10c11 0 18 8 18 19v8c0 9-3 15-6 17V38c0-3-2-4-4-2-4 3-12 3-16 0-2-2-4-1-4 2v16c-3-2-6-8-6-17v-8c0-11 7-19 18-19Z" fill="none" stroke="#23304F" stroke-width="3" stroke-linejoin="round"/><path d="M24 20c-3 5-4 11-3 17M40 20c3 5 4 11 3 17M32 17v20" stroke="#23304F" stroke-width="2.2" stroke-linecap="round" opacity=".5"/><path d="M18 44c2 5 4 8 4 12M46 44c-2 5-4 8-4 12" stroke="#E8A317" stroke-width="2.4" stroke-linecap="round"/></symbol><symbol id="b-bonnet" viewBox="0 0 64 64"><path d="M32 14c11 0 19 8 19 18v6H13v-6c0-10 8-18 19-18Z" fill="#1E6B4F" opacity=".2"/><path d="M32 14c11 0 19 8 19 18v6H13v-6c0-10 8-18 19-18Z" fill="none" stroke="#23304F" stroke-width="3" stroke-linejoin="round"/><rect x="10" y="38" width="44" height="9" rx="4.5" fill="none" stroke="#23304F" stroke-width="3"/><path d="M32 14V8M22 20c4-3 16-3 20 0" stroke="#E8A317" stroke-width="2.6" stroke-linecap="round"/></symbol><symbol id="b-lace" viewBox="0 0 64 64"><path d="M20 10h24v8H20z" fill="#23304F" opacity=".45"/><path d="M20 10h24v8H20z" fill="none" stroke="#23304F" stroke-width="3" stroke-linejoin="round"/><path d="M22 18c-2 12-2 22 1 32M30 18c-1 12-1 22 1 32M34 18c1 12 1 22-1 32M42 18c2 12 2 22-1 32" fill="none" stroke="#23304F" stroke-width="3" stroke-linecap="round"/><path d="M17 32h30" stroke="#E8A317" stroke-width="2.4" stroke-linecap="round" opacity=".9"/></symbol>
<symbol id="b-extension" viewBox="0 0 64 64"><path d="M16 10h32v6H16z" fill="#23304F" opacity=".4"/><path d="M16 10h32v6H16z" fill="none" stroke="#23304F" stroke-width="3" stroke-linejoin="round"/><path d="M22 16c0 12-4 14-4 22s4 10 4 16M32 16c0 12-4 14-4 22s4 10 4 16M42 16c0 12-4 14-4 22s4 10 4 16" fill="none" stroke="#23304F" stroke-width="3" stroke-linecap="round"/><path d="M20 30h4M30 30h4M40 30h4M20 44h4M30 44h4M40 44h4" stroke="#E8A317" stroke-width="2.4" stroke-linecap="round"/></symbol>
<symbol id="b-soins" viewBox="0 0 64 64"><path d="M22 24h20v28a4 4 0 0 1-4 4H26a4 4 0 0 1-4-4z" fill="#E8A317" opacity=".3"/><path d="M22 24h20v28a4 4 0 0 1-4 4H26a4 4 0 0 1-4-4z" fill="none" stroke="#23304F" stroke-width="3" stroke-linejoin="round"/><path d="M28 24v-6h8v6" fill="none" stroke="#23304F" stroke-width="3"/><rect x="26" y="8" width="12" height="10" rx="2.4" fill="none" stroke="#23304F" stroke-width="3"/><path d="M27 36h10" stroke="#23304F" stroke-width="2.6" stroke-linecap="round" opacity=".6"/></symbol>
<symbol id="b-corps" viewBox="0 0 64 64"><rect x="16" y="26" width="32" height="24" rx="6" fill="#1E6B4F" opacity=".22"/><rect x="16" y="26" width="32" height="24" rx="6" fill="none" stroke="#23304F" stroke-width="3"/><ellipse cx="32" cy="26" rx="16" ry="5" fill="none" stroke="#23304F" stroke-width="3"/><path d="M32 21c0-5 6-6 6-11" stroke="#E8A317" stroke-width="2.8" stroke-linecap="round"/><path d="M25 38h14" stroke="#23304F" stroke-width="2.6" stroke-linecap="round" opacity=".55"/></symbol>
<symbol id="i-trash" viewBox="0 0 24 24" fill="none" stroke="currentColor" stroke-width="1.9" stroke-linecap="round" stroke-linejoin="round"><path d="M4 6.6h16M9.4 6.6V4.8a1.4 1.4 0 0 1 1.4-1.4h2.4a1.4 1.4 0 0 1 1.4 1.4v1.8M6.2 6.6l.9 12.6a1.6 1.6 0 0 0 1.6 1.5h6.6a1.6 1.6 0 0 0 1.6-1.5l.9-12.6M10.2 10.6v6M13.8 10.6v6"/></symbol>
<symbol id="i-pencil" viewBox="0 0 24 24" fill="none" stroke="currentColor" stroke-width="1.9" stroke-linecap="round" stroke-linejoin="round"><path d="M4 20h4l10.4-10.4a2.5 2.5 0 0 0-3.5-3.5L4.5 16.5z"/><path d="M14.4 7.6l2.9 2.9"/></symbol>
<symbol id="i-copy" viewBox="0 0 24 24" fill="none" stroke="currentColor" stroke-width="1.9" stroke-linejoin="round"><rect x="8.6" y="8.6" width="12" height="12" rx="2.4"/><path d="M15.4 5.4H5.8a2 2 0 0 0-2 2v9.6"/></symbol>
<symbol id="i-image" viewBox="0 0 24 24" fill="none" stroke="currentColor" stroke-width="1.9" stroke-linejoin="round"><rect x="3.2" y="4.6" width="17.6" height="14.8" rx="2.4"/><circle cx="8.7" cy="10" r="1.8"/><path d="M3.6 17.2l4.8-4.4 4 3.4 3-2.6 4.8 4.2"/></symbol>
<symbol id="i-chart" viewBox="0 0 24 24" fill="none" stroke="currentColor" stroke-width="1.9" stroke-linecap="round"><path d="M4 20V4M4 20h16"/><path d="M8 16.5V12M12.4 16.5V7.4M16.8 16.5v-6"/></symbol>
<symbol id="i-tag" viewBox="0 0 24 24" fill="none" stroke="currentColor" stroke-width="1.9" stroke-linejoin="round"><path d="M11.4 3.4H20v8.6l-8.9 8.9a1.6 1.6 0 0 1-2.3 0l-6.3-6.3a1.6 1.6 0 0 1 0-2.3z"/><circle cx="16.2" cy="7.8" r="1.5"/></symbol>
<symbol id="i-cog" viewBox="0 0 24 24" fill="none" stroke="currentColor" stroke-width="1.8" stroke-linejoin="round"><circle cx="12" cy="12" r="3.2"/><path d="M19.2 14.6a1.4 1.4 0 0 0 .3 1.5l.1.1a1.7 1.7 0 1 1-2.4 2.4l-.1-.1a1.4 1.4 0 0 0-1.5-.3 1.4 1.4 0 0 0-.9 1.3v.2a1.7 1.7 0 1 1-3.4 0v-.1a1.4 1.4 0 0 0-.9-1.3 1.4 1.4 0 0 0-1.5.3l-.1.1a1.7 1.7 0 1 1-2.4-2.4l.1-.1a1.4 1.4 0 0 0 .3-1.5 1.4 1.4 0 0 0-1.3-.9h-.2a1.7 1.7 0 0 1 0-3.4h.1a1.4 1.4 0 0 0 1.3-.9 1.4 1.4 0 0 0-.3-1.5l-.1-.1a1.7 1.7 0 1 1 2.4-2.4l.1.1a1.4 1.4 0 0 0 1.5.3h.1a1.4 1.4 0 0 0 .9-1.3v-.2a1.7 1.7 0 1 1 3.4 0v.1a1.4 1.4 0 0 0 .9 1.3 1.4 1.4 0 0 0 1.5-.3l.1-.1a1.7 1.7 0 1 1 2.4 2.4l-.1.1a1.4 1.4 0 0 0-.3 1.5v.1a1.4 1.4 0 0 0 1.3.9h.2a1.7 1.7 0 0 1 0 3.4h-.1a1.4 1.4 0 0 0-1.3.9Z"/></symbol>
<symbol id="i-box" viewBox="0 0 24 24" fill="none" stroke="currentColor" stroke-width="1.9" stroke-linejoin="round"><path d="M20.6 8.4v7.2a1.7 1.7 0 0 1-.9 1.5l-6.9 3.7a1.7 1.7 0 0 1-1.6 0l-6.9-3.7a1.7 1.7 0 0 1-.9-1.5V8.4a1.7 1.7 0 0 1 .9-1.5l6.9-3.7a1.7 1.7 0 0 1 1.6 0l6.9 3.7a1.7 1.7 0 0 1 .9 1.5Z"/><path d="M3.7 7.7 12 12.2l8.3-4.5M12 21V12.2"/></symbol>
<symbol id="i-download" viewBox="0 0 24 24" fill="none" stroke="currentColor" stroke-width="1.9" stroke-linecap="round" stroke-linejoin="round"><path d="M12 3.6v11.2M7.6 10.6 12 15l4.4-4.4M4.4 19.4h15.2"/></symbol>
<symbol id="i-upload" viewBox="0 0 24 24" fill="none" stroke="currentColor" stroke-width="1.9" stroke-linecap="round" stroke-linejoin="round"><path d="M12 15.4V4.2M7.6 8.6 12 4.2l4.4 4.4M4.4 19.4h15.2"/></symbol>
<symbol id="i-help" viewBox="0 0 24 24" fill="none" stroke="currentColor" stroke-width="1.9" stroke-linecap="round"><circle cx="12" cy="12" r="8.8"/><path d="M9.5 9.4a2.6 2.6 0 0 1 5 .8c0 1.7-2.5 2.2-2.5 3.8"/><path d="M12 17.1h.01"/></symbol>
</defs></svg>
